<svg width="100" height="38" viewBox="0 0 100 38" fill="none" xmlns="http://www.w3.org/2000/svg">
<path d="M35.7196 25.9H24.3976C24.9159 28.2274 26.6419 29.986 28.8836 29.986C29.5109 29.987 30.1313 29.8438 30.7051 29.5656C31.2788 29.2874 31.7931 28.8805 32.2148 28.3709L34.9497 28.4344C34.3692 29.6763 33.4879 30.7184 32.4025 31.4461C31.3172 32.1739 30.07 32.559 28.7981 32.5591C24.9033 32.5591 21.8464 28.8513 21.8464 24.6577C21.8464 20.3315 24.8656 16.7895 28.8459 16.7895C29.7637 16.7945 30.6717 16.9979 31.5179 17.388C32.3642 17.7781 33.1321 18.3473 33.7778 19.0631C34.4236 19.7789 34.9346 20.6272 35.2815 21.5596C35.6285 22.4921 35.8047 23.4904 35.8001 24.4976C35.7988 24.9672 35.7736 25.4363 35.7246 25.9028L35.7196 25.9ZM28.8182 19.3542C26.5991 19.3542 24.541 21.2868 24.4051 23.7356H33.2287C33.0828 21.2757 31.0373 19.3542 28.8182 19.3542Z" fill="#231F20"/>
<path d="M47.0541 32.1781V24.0338C47.0541 21.4911 46.3647 19.3404 43.6525 19.3404C41.1365 19.3404 40.0546 21.4773 40.0546 23.9923V32.1643H37.4908V17.1898H39.881V18.7855H39.9288C40.9151 17.3527 42.3467 16.7867 43.9242 16.7867C45.8716 16.7867 47.6982 17.6149 48.7549 19.4619C49.4217 20.5993 49.6179 21.9797 49.6179 23.3049V32.1781H47.0541Z" fill="#231F20"/>
<path d="M63.2495 32.1781V30.0412H63.1992C62.0645 31.7695 60.2656 32.5563 58.3685 32.5563C54.275 32.5563 51.2659 29.2019 51.2659 24.7377C51.2659 20.2736 54.2272 16.7867 58.3685 16.7867C60.092 16.7867 61.9161 17.5155 63.003 19.0312H63.0508V12.1596H65.6146V32.1781H63.2495ZM58.5144 19.3542C55.8022 19.3542 53.8297 21.7892 53.8297 24.7101C53.8297 27.5234 55.8777 29.986 58.4918 29.986C59.12 29.9827 59.7415 29.8437 60.3206 29.5767C60.8998 29.3097 61.4254 28.9201 61.8672 28.4301C62.3091 27.9401 62.6586 27.3594 62.8958 26.7211C63.133 26.0828 63.2532 25.3995 63.2495 24.7101C63.2495 21.7064 61.3022 19.3542 58.5144 19.3542Z" fill="#231F20"/>
<path d="M73.0317 37.1834H70.3698L72.365 31.8799L66.9203 17.1898H69.6779L73.6959 28.8237L77.8146 17.1898H80.5746L73.0317 37.1834Z" fill="#231F20"/>
<path d="M87.8736 32.5591C83.848 32.5591 80.5017 29.0142 80.5017 24.5776C80.5017 20.141 83.9285 16.7895 87.8736 16.7895C91.8665 16.7895 95.2429 20.1963 95.2429 24.6328C95.2429 28.9065 92.0124 32.5591 87.8736 32.5591ZM87.8736 19.357C86.9119 19.3482 85.9696 19.6537 85.1666 20.2345C84.3636 20.8152 83.7363 21.6451 83.3645 22.6183C82.9927 23.5915 82.8932 24.6641 83.0786 25.6996C83.2641 26.7351 83.7262 27.6866 84.4061 28.433C85.0859 29.1794 85.9528 29.6869 86.8964 29.891C87.8399 30.095 88.8175 29.9864 89.7046 29.5789C90.5918 29.1714 91.3483 28.4835 91.878 27.6027C92.4077 26.7219 92.6866 25.6881 92.6791 24.6328C92.6765 23.235 92.1694 21.8951 91.2688 20.9064C90.3683 19.9177 89.1475 19.3606 87.8736 19.357Z" fill="#231F20"/>
<path d="M97.3362 32.1781V12.1596H99.9V32.1781H97.3362Z" fill="#231F20"/>
<path d="M2.5336 29.2213C2.62113 29.6274 2.7627 30.0172 2.95377 30.378C3.12455 30.6781 3.33674 30.9473 3.58277 31.1759C4.43305 31.9713 5.52291 32.3906 6.6397 32.352C7.8132 32.3604 8.96867 32.0351 9.99352 31.4078V28.7215C9.08834 29.353 8.04622 29.7084 6.97433 29.7513C5.67105 29.7513 5.00934 28.8817 5.00934 27.1645V19.8318H9.29911V17.2339H4.99928V12.4246H2.46819V17.2339H0V19.8318H2.36503V26.4853C2.33474 27.4031 2.39123 28.3218 2.5336 29.2268V29.2213Z" fill="#231F20"/>
<path d="M18.0472 19.7021C18.8398 19.7021 19.7128 20.1852 20.6437 21.1432L22.0325 18.6033C20.9029 17.4631 19.5317 16.9468 18.7291 16.9468H18.5554C17.6396 16.9468 16.1074 16.9468 14.8519 19.1554L14.7991 19.2493L14.8142 17.2284H12.1648V32.0869H14.8142V24.3209C14.7922 23.152 15.1299 22.0092 15.7728 21.0769C16.4093 20.1631 17.1767 19.6966 18.0372 19.6966L18.0472 19.7021Z" fill="#231F20"/>
<path d="M73.3789 13.7857C73.3211 13.791 73.2636 13.7729 73.2172 13.7347C73.1708 13.6966 73.1388 13.641 73.1273 13.5787L72.448 8.86048C72.2241 7.32272 72.448 6.04172 73.1776 4.99538C73.9073 3.94904 74.974 3.33891 76.3352 3.09872L94.161 0.00112114C94.2189 -0.00483276 94.2767 0.0130735 94.3232 0.0513511C94.3697 0.0896287 94.4016 0.145536 94.4126 0.20818L95.7838 9.64454C95.7887 9.70794 95.7721 9.77108 95.7373 9.82198C95.7026 9.87288 95.6519 9.90798 95.5951 9.92062L73.3789 13.7857Z" fill="#FF671D"/>
<path d="M79.3469 8.8163C79.2788 9.10163 79.1356 9.35859 78.9351 9.55502C78.7346 9.75145 78.4858 9.87863 78.2197 9.92062C77.5001 10.0476 76.6799 9.5838 76.5088 8.44084C76.3579 7.42211 76.8535 6.60216 77.7165 6.44755C77.9829 6.39233 78.2582 6.42748 78.5059 6.54832C78.7536 6.66916 78.9618 6.86996 79.1028 7.12394L79.9658 6.9721C79.713 6.44771 79.2976 6.03987 78.7946 5.82233C78.2916 5.60478 77.7343 5.59189 77.2234 5.78598C76.7125 5.98007 76.2818 6.36834 76.009 6.88058C75.7363 7.39281 75.6396 7.99522 75.7364 8.57888C75.7742 8.90795 75.8724 9.22522 76.025 9.51151C76.1776 9.79779 76.3816 10.0472 76.6245 10.2446C76.8674 10.4419 77.1442 10.5833 77.4383 10.66C77.7324 10.7367 78.0376 10.7472 78.3355 10.6909C78.804 10.6097 79.2375 10.3691 79.5747 10.003C79.9119 9.63692 80.1358 9.16389 80.2149 8.65066L79.3469 8.80526V8.8163Z" fill="white"/>
<path d="M82.6705 4.76071C82.0593 4.85975 81.5087 5.22028 81.1391 5.76349C80.7694 6.30669 80.6108 6.98838 80.6979 7.65953C80.7573 8.17494 80.9557 8.65911 81.2677 9.0499C81.5797 9.44068 81.9909 9.72024 82.4487 9.85269C82.9065 9.98514 83.39 9.96444 83.837 9.79324C84.284 9.62204 84.6741 9.30816 84.9574 8.89189C85.2407 8.47562 85.4041 7.97595 85.4267 7.45703C85.4493 6.93811 85.33 6.42362 85.0842 5.97961C84.8384 5.5356 84.4773 5.18232 84.0472 4.96514C83.6171 4.74795 83.1377 4.67676 82.6705 4.76071ZM83.3045 9.00404C82.9921 9.06286 82.6709 9.01874 82.3814 8.87725C82.0919 8.73576 81.8471 8.50326 81.678 8.20913C81.5088 7.91501 81.423 7.57247 81.4313 7.22481C81.4396 6.87716 81.5416 6.54001 81.7245 6.25598C81.9074 5.97195 82.1629 5.75379 82.4587 5.62909C82.7546 5.50438 83.0775 5.47873 83.3866 5.55538C83.6958 5.63203 83.9773 5.80753 84.1955 6.0597C84.4138 6.31187 84.559 6.62938 84.6128 6.9721C84.6486 7.19979 84.6431 7.43298 84.5967 7.65835C84.5503 7.88371 84.4639 8.09684 84.3424 8.28554C84.2209 8.47424 84.0667 8.63482 83.8886 8.7581C83.7105 8.88139 83.512 8.96496 83.3045 9.00404Z" fill="white"/>
<path d="M93.0112 7.92457L92.5835 5.05059C92.3948 3.78892 91.6224 3.15394 90.5153 3.35271C89.8461 3.47419 89.441 3.7972 89.207 4.40457L89.1894 4.4515L89.1618 4.41009C88.8498 3.90763 88.1881 3.77235 87.705 3.85794C87.4631 3.88372 87.2311 3.97655 87.0309 4.12771C86.8306 4.27886 86.6687 4.48338 86.5602 4.72206H86.5099L86.4143 4.22236L85.7048 4.34936L86.4143 9.10895L87.1892 8.97091L86.7917 6.31227C86.6458 5.32943 86.9351 4.78556 87.6823 4.6558C87.8454 4.61539 88.0152 4.62296 88.1747 4.67774C88.3342 4.73252 88.4777 4.83258 88.5906 4.96777C88.7892 5.24651 88.9074 5.58391 88.9303 5.93681L89.3253 8.58716L90.1002 8.44636L89.7077 5.77944C89.6071 5.09753 89.6121 4.2969 90.5606 4.12297C91.2551 3.99874 91.6979 4.44046 91.8413 5.40121L92.2363 8.05157L93.0112 7.91077V7.92457Z" fill="white"/>
<path d="M75.5955 10.724C75.596 10.8602 75.5596 10.9935 75.491 11.107C75.4223 11.2204 75.3245 11.309 75.2099 11.3613C75.0953 11.4137 74.9692 11.4276 74.8474 11.4011C74.7257 11.3747 74.6138 11.3092 74.526 11.2129C74.4383 11.1165 74.3785 10.9938 74.3544 10.8602C74.3304 10.7266 74.343 10.5881 74.3907 10.4624C74.4384 10.3367 74.5191 10.2294 74.6225 10.154C74.7259 10.0787 74.8474 10.0388 74.9715 10.0393C75.137 10.0393 75.2957 10.1115 75.4127 10.2399C75.5298 10.3683 75.5955 10.5424 75.5955 10.724Z" fill="white"/>
</svg>
