<svg width="14" height="15" viewBox="0 0 14 15" fill="none" xmlns="http://www.w3.org/2000/svg">
    <path d="M8.95446 8.12496C8.65705 8.12496 8.41666 8.40499 8.41666 8.74992V11.25C8.41666 11.5944 8.17568 11.875 7.87876 11.875H6.26526V2.49996C6.26526 1.96622 5.97268 1.48934 5.53277 1.31184L5.37353 1.24992H7.87876C8.17568 1.24992 8.41666 1.53053 8.41666 1.875V3.75C8.41666 4.09493 8.65705 4.37496 8.95446 4.37496C9.25188 4.37496 9.49226 4.09493 9.49226 3.75V1.875C9.49226 0.84126 8.76833 0 7.87876 0H2.09709C2.0766 0 2.05947 0.0106494 2.03958 0.0137256C2.01368 0.0112061 1.98896 0 1.96266 0C1.36941 0 0.886963 0.560537 0.886963 1.24992V12.4999C0.886963 13.0337 1.17955 13.5105 1.61945 13.688L4.8562 14.9419C4.9659 14.9812 5.07502 15 5.18965 15C5.78289 15 6.26525 14.4394 6.26525 13.75V13.125H7.87875C8.76832 13.125 9.49225 12.2837 9.49225 11.25V8.74992C9.49225 8.40499 9.25186 8.12496 8.95445 8.12496H8.95446ZM13.6374 5.80811L11.486 3.30814C11.3323 3.12939 11.1009 3.0756 10.8998 3.17241C10.6992 3.26934 10.568 3.49742 10.568 3.75V5.625H8.41666C8.11974 5.625 7.87876 5.90492 7.87876 6.24996C7.87876 6.59501 8.11974 6.87492 8.41666 6.87492H10.568V8.74992C10.568 9.00249 10.6992 9.23058 10.8998 9.32751C11.1009 9.42432 11.3323 9.37055 11.486 9.19189L13.6374 6.69182C13.8477 6.44748 13.8477 6.05244 13.6374 5.80811Z" fill="#999999"/>
</svg>
