<svg width="21" height="16" viewBox="0 0 21 16" fill="none" xmlns="http://www.w3.org/2000/svg">
<path d="M11.5595 13.7957C12.5545 13.1852 13.54 12.4969 14.4505 11.7451C16.9537 9.67779 18.4265 7.52344 18.4265 5.43236C18.4265 0.912598 12.0431 -0.0154943 11.2906 4.14822C11.1423 4.9688 9.86694 4.9688 9.71863 4.14817C8.96626 -0.0154629 2.5847 0.912552 2.5847 5.43231C2.5847 7.52345 4.05716 9.67781 6.55982 11.7451C7.47004 12.4969 8.45529 13.1852 9.45011 13.7957C9.86009 14.0473 10.2179 14.2536 10.5046 14.4107C10.7914 14.2536 11.1494 14.0473 11.5595 13.7957L11.5595 13.7957ZM10.5046 16C10.3386 16.0007 10.1783 15.9524 10.0452 15.867C9.69287 15.6851 9.1834 15.4009 8.56889 15.0238C7.51453 14.3768 6.4698 13.6469 5.49814 12.8443C2.68975 10.5245 0.990967 8.03903 0.990967 5.43238C0.990967 -0.0029788 7.98467 -1.71807 10.5047 1.93527C13.0251 -1.71809 20.0202 -0.00299453 20.0202 5.43238C20.0202 8.03911 18.321 10.5246 15.512 12.8444C14.5401 13.647 13.4952 14.3769 12.4406 15.0239C11.8259 15.401 11.3163 15.6852 10.9639 15.867C10.8309 15.9524 10.6705 16.0007 10.5045 16L10.5046 16Z" fill="black"/>
</svg>
