<svg width="18" height="16" viewBox="0 0 18 16" fill="none" xmlns="http://www.w3.org/2000/svg">
<path d="M8.88581 8.89825C5.32286 8.89825 2.39386 11.4335 2.04184 14.683H15.7298C15.3778 11.4335 12.4488 8.89825 8.88581 8.89825ZM16.4684 16H1.30322C0.914888 16 0.600098 15.7052 0.600098 15.3415C0.600098 11.0552 4.30871 7.58117 8.88581 7.58117C13.4629 7.58117 17.1715 11.0552 17.1715 15.3415C17.1715 15.7052 16.8567 16 16.4684 16H16.4684ZM11.974 4.20942C11.974 2.61304 10.5903 1.31708 8.88583 1.31708C7.18136 1.31708 5.79766 2.61304 5.79766 4.20942C5.79766 5.80581 7.18136 7.10177 8.88583 7.10177C10.5903 7.10177 11.974 5.80581 11.974 4.20942ZM13.3802 4.20942C13.3802 6.53323 11.3669 8.41885 8.88581 8.41885C6.4047 8.41885 4.39139 6.53323 4.39139 4.20942C4.39139 1.88561 6.40467 0 8.88581 0C11.367 0 13.3802 1.88565 13.3802 4.20942Z" fill="black"/>
</svg>
