<svg width="14" height="14" viewBox="0 0 14 14" fill="none" xmlns="http://www.w3.org/2000/svg">
<path d="M0.886963 1.50001V9.75C0.886963 10.563 1.47815 11.25 2.17776 11.25H3.89882V13.75C3.89882 13.8533 3.95347 13.946 4.03631 13.9832C4.06168 13.9947 4.08794 14 4.11397 14C4.17333 14 4.23142 13.9715 4.27317 13.9182L6.36039 11.25H12.5042C13.2038 11.25 13.795 10.563 13.795 9.74998V1.5C13.795 0.686996 13.2038 0 12.5042 0H2.17779C1.47817 0 0.886988 0.686996 0.886988 1.5L0.886963 1.50001ZM9.49229 5.50001C9.49229 4.94851 9.87826 4.50001 10.3528 4.50001C10.8274 4.50001 11.2134 4.94853 11.2134 5.50001C11.2134 6.05151 10.8274 6.50001 10.3528 6.50001C9.87826 6.50001 9.49229 6.05149 9.49229 5.50001ZM6.48042 5.50001C6.48042 4.94851 6.86636 4.50001 7.34096 4.50001C7.81555 4.50001 8.20149 4.94853 8.20149 5.50001C8.20149 6.05151 7.81553 6.50001 7.34096 6.50001C6.86638 6.50001 6.48042 6.05149 6.48042 5.50001ZM3.46856 5.50001C3.46856 4.94851 3.8545 4.50001 4.3291 4.50001C4.80369 4.50001 5.18963 4.94853 5.18963 5.50001C5.18963 6.05151 4.80369 6.50001 4.3291 6.50001C3.8545 6.50001 3.46856 6.05149 3.46856 5.50001Z" fill="#999999"/>
</svg>
