<svg width="14" height="18" viewBox="0 0 14 18" fill="none" xmlns="http://www.w3.org/2000/svg">
<path d="M3.2163 4.85682L8.64424 1.60313L7.44733 0L2.84885 4.88181H3.19052C3.19911 4.87183 3.20771 4.86433 3.2163 4.85684V4.85682ZM10.2623 13.8713C9.9808 13.8713 9.76592 13.5766 9.76592 13.247L9.67137 10.3204C9.67137 9.99082 9.88625 9.70116 10.1677 9.70116H13.6725L13.6596 6.19025C13.6596 5.93055 13.593 5.71081 13.4791 5.55598C13.3674 5.40367 13.2083 5.30628 12.972 5.30377H11.4356L10.0926 2.08753L3.89748 5.80568H11.6247L12.02 6.74958C12.2672 6.77955 12.4713 6.92937 12.6024 7.13664C12.7485 7.36887 12.8173 7.66102 12.813 7.95318V9.14429C12.8323 9.21421 12.8022 9.27664 12.7506 9.31159C12.6991 9.34654 12.6368 9.34656 12.5852 9.31159C12.5336 9.27663 12.4906 9.14429 12.4906 9.14429L12.4777 7.96317C12.4777 7.74343 12.4197 7.52367 12.3252 7.37385C12.2306 7.22402 12.1038 7.12913 11.919 7.12913L1.87756 7.13413C1.55309 7.13413 1.2544 7.03674 1.02448 6.86693C0.975054 6.82948 0.929929 6.79202 0.886963 6.74707L0.891266 16.6056C0.893409 16.8128 0.996553 17.0151 1.19425 17.1724C1.39409 17.3322 1.68418 17.4421 2.00865 17.4421H11.8288C12.1812 17.4421 12.5207 17.1075 12.5207 16.6056L12.6303 14.3732C12.6303 14.3033 12.6604 14.2408 12.7119 14.2059C12.7635 14.1709 12.8258 14.1709 12.8774 14.2059C12.929 14.2408 12.9591 14.3057 12.9591 14.3732L12.8495 16.5331C13.0794 16.5182 13.2857 16.4507 13.4297 16.3359C13.593 16.2035 13.6854 16.0262 13.6854 15.7266L13.795 13.8713H10.2623V13.8713ZM1.18782 6.54485C1.35973 6.6722 1.6047 6.7546 1.87329 6.7546H2.35892C2.36106 6.75211 2.36322 6.7496 2.36322 6.7496L3.72557 5.30628H2.05808C1.71427 5.30379 1.40913 5.41865 1.19639 5.58846C1.03738 5.71581 0.934232 5.87063 0.891266 6.03293C0.897712 6.05041 0.899856 6.0679 0.902015 6.08786C0.921355 6.25018 1.01591 6.41748 1.1878 6.54483L1.18782 6.54485ZM10.5782 10.7624V12.6777C10.5782 12.825 10.6491 12.9224 10.72 12.9224H13.651V10.5252H10.72C10.6491 10.5252 10.5782 10.6151 10.5782 10.7624V10.7624Z" fill="#999999"/>
</svg>
