<svg width="14" height="13" viewBox="0 0 14 13" fill="none" xmlns="http://www.w3.org/2000/svg">
<path d="M12.6851 0C13.2981 0 13.795 0.577417 13.795 1.2897V8.60066C13.795 9.31294 13.2981 9.89036 12.6851 9.89036L6.83278 9.89017L4.48678 12.6173L4.48644 9.89017L1.99679 9.89036C1.4145 9.89036 0.936948 9.36924 0.890642 8.70644L0.886963 8.60067V1.28971C0.886963 0.57743 1.38385 1.27536e-05 1.99679 1.27536e-05L12.6851 0ZM4.16992 4.9966H3.54522L3.54835 5.14838C3.617 6.80828 4.80509 8.13976 6.25001 8.13976H8.37662L8.50722 8.13612C9.93547 8.05634 11.0814 6.6753 11.0814 4.99662H10.4567L10.4536 5.12865C10.394 6.39662 9.48185 7.41383 8.37662 7.41383H6.25001L6.13636 7.41023C5.04494 7.34101 4.16992 6.28119 4.16992 4.99662V4.9966ZM5.45252 1.85346C4.69307 1.85346 4.07687 2.56954 4.07687 3.45207H4.70156L4.70544 3.3629C4.74392 2.92311 5.06397 2.5794 5.45251 2.5794C5.86695 2.5794 6.20348 2.97046 6.20348 3.45207H6.82817L6.82471 3.33796C6.77431 2.50863 6.17894 1.85348 5.45251 1.85348L5.45252 1.85346ZM9.1741 1.85346C8.41465 1.85346 7.79844 2.56954 7.79844 3.45207H8.42314L8.42701 3.3629C8.4655 2.92311 8.78555 2.5794 9.17409 2.5794C9.58853 2.5794 9.92505 2.97046 9.92505 3.45207H10.5497L10.5463 3.33796C10.4959 2.50863 9.90052 1.85348 9.17409 1.85348L9.1741 1.85346Z" fill="#999999"/>
</svg>
