<svg width="19" height="16" viewBox="0 0 19 16" fill="none" xmlns="http://www.w3.org/2000/svg">
<path d="M16.258 11.8321C16.6647 11.8321 16.9943 12.1345 16.9943 12.5075C16.9943 12.8805 16.6647 13.1829 16.258 13.1829H6.30077C5.3546 13.1829 4.52654 12.4986 4.41134 11.6247L3.37205 4.90052L2.77908 1.75127C2.75021 1.53655 2.53669 1.35128 2.32535 1.35128L1.54197 1.35125C1.14305 1.34116 0.825439 1.04164 0.825439 0.675641C0.825439 0.309641 1.14312 0.0101222 1.54471 0H2.32538C3.28181 0 4.1189 0.684359 4.23417 1.55542L4.82546 4.69066L5.86985 11.4489C5.89648 11.6547 6.09946 11.8321 6.30031 11.8321H16.258H16.258ZM17.7549 2.23243C18.1368 2.62763 18.3113 3.1835 18.235 3.76265L17.2697 8.83518C17.1557 9.69459 16.3289 10.3658 15.3927 10.3656L7.12092 10.9275C6.82488 10.9456 6.54586 10.7992 6.41273 10.5561C6.27959 10.3129 6.31814 10.0202 6.51084 9.81295C6.63888 9.67601 6.81741 9.59356 7.01309 9.5807L15.3383 9.01634C15.5715 9.01523 15.7875 8.84403 15.8151 8.63672L16.7795 3.56475C16.8009 3.40139 16.7493 3.22683 16.6517 3.12525C16.6025 3.07124 16.5293 3.04045 16.4512 3.04149L5.83308 3.04146C5.43416 3.03137 5.11651 2.73188 5.11651 2.36585C5.11651 1.99982 5.43416 1.70033 5.83582 1.69021H16.4512C16.9545 1.69021 17.4189 1.88345 17.7503 2.22809L17.7549 2.2325L17.7549 2.23243ZM6.46185 16L6.45911 16C5.71304 16 5.10822 15.4452 5.10822 14.7609C5.10822 14.0765 5.71304 13.5218 6.46189 13.5218C7.19333 13.5405 7.77568 14.0897 7.77568 14.7609C7.77568 15.432 7.19333 15.9813 6.46189 15.9999L6.46185 16ZM15.0452 16C14.3082 15.9813 13.7258 15.4321 13.7258 14.7609C13.7258 14.0897 14.3082 13.5405 15.0452 13.5219C15.7766 13.5405 16.359 14.0897 16.359 14.7609C16.359 15.4321 15.7766 15.9813 15.0452 16Z" fill="black"/>
</svg>
