<svg width="14" height="15" viewBox="0 0 14 15" fill="none" xmlns="http://www.w3.org/2000/svg">
<path d="M7.34097 0C10.8907 0 13.795 3.375 13.795 7.5C13.795 11.625 10.8907 15 7.34097 15C3.79127 15 0.886963 11.625 0.886963 7.5C0.886963 3.375 3.79127 0 7.34097 0ZM7.42703 10.3588C7.19789 10.3588 7.00752 10.45 6.85692 10.6338C6.70632 10.8175 6.63101 11.05 6.63101 11.3338C6.63101 11.6175 6.70629 11.85 6.85692 12.0338C7.00754 12.2175 7.19789 12.3088 7.42703 12.3088C7.65616 12.3088 7.84868 12.2175 8.0025 12.0338C8.15632 11.85 8.23377 11.6175 8.23377 11.3338C8.23377 11.05 8.15632 10.8175 8.0025 10.6338C7.84868 10.45 7.65613 10.3588 7.42703 10.3588ZM7.56686 3.63373C7.15811 3.63373 6.79024 3.73623 6.46432 3.93999C6.20294 4.10249 5.97059 4.30249 5.76728 4.5375L5.61992 4.72125L6.30835 5.45873C6.46647 5.25874 6.63427 5.09998 6.81393 4.98374C6.99359 4.8675 7.19363 4.80873 7.41631 4.80873C7.68846 4.80873 7.90251 4.9 8.05633 5.08373C8.21016 5.26746 8.2876 5.50875 8.2876 5.80871C8.2876 5.99997 8.24779 6.17997 8.16927 6.34622C8.09075 6.51246 7.99178 6.68123 7.87344 6.85246C7.75511 7.0237 7.62926 7.19871 7.49696 7.37746C7.36466 7.55621 7.24633 7.74996 7.142 7.95871C7.03766 8.16744 6.95913 8.39621 6.90536 8.64621C6.86558 8.83371 6.84942 9.03496 6.86018 9.25121L6.87847 9.4712H7.96489C7.93585 9.20493 7.9563 8.96245 8.02405 8.74619C8.0918 8.52992 8.18217 8.32494 8.29296 8.13369C8.40376 7.94243 8.52961 7.75868 8.66945 7.58368C8.80928 7.40867 8.9405 7.22492 9.06207 7.03367C9.18362 6.84241 9.28581 6.63992 9.36863 6.42742C9.45145 6.21492 9.49231 5.97494 9.49231 5.70867C9.49231 5.36742 9.4439 5.06742 9.34708 4.80866C9.25026 4.54989 9.11795 4.33366 8.94908 4.15865C8.78021 3.98365 8.57798 3.8524 8.34132 3.76491C8.10468 3.67739 7.84652 3.63366 7.56685 3.63366L7.56686 3.63373Z" fill="#999999"/>
</svg>
