<svg width="14" height="14" viewBox="0 0 14 14" fill="none" xmlns="http://www.w3.org/2000/svg">
<path fill-rule="evenodd" clip-rule="evenodd" d="M13.6676 5.01376C13.8141 5.03783 13.9348 5.14316 13.9808 5.29063C14.0268 5.43809 13.9894 5.6006 13.8773 5.70894L10.7281 8.94411L11.4838 13.4733C11.4924 13.5034 11.4953 13.5335 11.4953 13.5666C11.4953 13.7893 11.32 13.9729 11.1074 13.9729C11.047 13.9729 10.9867 13.9579 10.9292 13.9278L7.01847 11.788L3.11922 13.9518C3.06175 13.985 3.00141 14 2.9382 14C2.85774 14 2.77728 13.9729 2.71119 13.9218C2.59051 13.8315 2.53017 13.678 2.55603 13.5245L3.28875 8.96819L0.11936 5.75107C0.0130435 5.64574 -0.0271845 5.48323 0.0187904 5.33577C0.0647653 5.18831 0.185449 5.08297 0.331994 5.0589L4.69961 4.37876L6.63917 0.228719C6.70526 0.0872743 6.84032 0 6.98686 0C7.13341 0 7.26846 0.0872743 7.33455 0.225709L9.29997 4.36371L13.6676 5.01376Z" fill="#FFC000"/>
</svg>
