<svg width="19" height="18" viewBox="0 0 19 18" fill="none" xmlns="http://www.w3.org/2000/svg">
<g clip-path="url(#clip0)">
<path d="M19.4109 17.306L14.7269 12.603C15.9255 11.2393 16.5879 9.48658 16.5909 7.671C16.5909 3.441 13.0269 0 8.64593 0C4.26494 0 0.699951 3.441 0.699951 7.671C0.699951 11.901 4.26494 15.342 8.64593 15.342C10.2684 15.3483 11.855 14.8645 13.1979 13.954L17.9179 18.694C18.1149 18.891 18.3799 19 18.6639 19C18.9339 19 19.1889 18.9 19.3819 18.72C19.4795 18.6308 19.558 18.5227 19.6126 18.4023C19.6673 18.2819 19.6969 18.1516 19.6997 18.0194C19.7025 17.8872 19.6784 17.7558 19.629 17.6332C19.5795 17.5106 19.5056 17.3993 19.4119 17.306H19.4109ZM8.64593 2.001C11.8839 2.001 14.5189 4.545 14.5189 7.671C14.5189 10.798 11.8839 13.341 8.64593 13.341C5.40694 13.341 2.77295 10.798 2.77295 7.671C2.77295 4.545 5.40694 2.001 8.64593 2.001Z" fill="#F27A1A"/>
</g>
<defs>
<clipPath id="clip0">
<rect width="17.9999" height="18" fill="white" transform="translate(0.699951)"/>
</clipPath>
</defs>
</svg>
